<?xml version="1.0" encoding="UTF-8"?>
<svg version="1.1" xmlns="http://www.w3.org/2000/svg" width="512" height="641">
<path d="M0 0 C4.27784811 3.39075364 8.16658351 7.12018816 12 11 C12.67675781 11.66644531 13.35351562 12.33289063 14.05078125 13.01953125 C33.84329135 33.86530131 32.03059106 67.3695536 34.12255859 94.16992188 C36.50090622 130.8439902 36.50090622 130.8439902 49 165 C49.52980469 166.12148438 49.52980469 166.12148438 50.0703125 167.265625 C51.32825924 169.61238278 52.55904659 169.98293608 55 171 C55.99 171.515625 56.98 172.03125 58 172.5625 C65.22020005 176.02217919 73.87759581 176.16398024 81.5625 174 C92.82012228 169.64352411 101.52618062 160.17205194 109.26171875 151.24609375 C123.9085235 134.45604494 139.95521967 118.41662401 163 115 C165.59529355 114.90769876 168.15633446 114.86000771 170.75 114.875 C171.77673828 114.86919922 171.77673828 114.86919922 172.82421875 114.86328125 C177.87327939 114.87327939 177.87327939 114.87327939 179 116 C179.22637016 119.24463898 179.14023806 121.62311023 178 124.6875 C174.539669 136.14984645 179.00787773 145.1878044 184.1875 155.3125 C188.44559467 163.65629685 188.84031089 170.5554384 186.3125 179.5 C183.83073043 186.98824591 181.71885759 191.85308955 174.515625 195.5 C168.24723794 198.53591267 161.78247644 200.07553515 155.03515625 201.671875 C147.76736562 203.50152859 140.63651947 205.79048893 136.5625 212.5 C128.38041527 230.8278698 139.70197256 254.65125373 145.20092773 272.3125 C158.21400436 314.17723617 158.21400436 314.17723617 150.1875 330.03515625 C149.795625 330.68355469 149.40375 331.33195312 149 332 C148.649375 332.63808594 148.29875 333.27617187 147.9375 333.93359375 C142.1722917 343.24200299 132.14711953 346.5173296 122 349 C117.58379306 349.93168923 113.31120387 350.12806242 108.81762695 350.23925781 C92.56581843 350.68132351 75.05692292 352.94307708 63 365 C57.43642212 371.82029194 55.47543213 377.71342165 56.33984375 386.48828125 C56.53365702 388.09701461 56.73310711 389.70507655 56.9375 391.3125 C59.23149117 411.91042911 59.77660651 432.39303427 46.87890625 449.875 C34.94279041 463.98666405 15.5892014 474.22151364 -2.7734375 476.31640625 C-11.00108859 476.6736292 -17.33226822 474.37323821 -24.1875 469.9375 C-31.90208152 462.76773355 -35.56702428 452.67474975 -39 443 C-41.15856427 437.19586052 -43.2716722 432.00994048 -47 427 C-47.598125 426.19304687 -48.19625 425.38609375 -48.8125 424.5546875 C-56.6219155 415.43440583 -69.95928248 410.72830263 -81.71240234 409.78149414 C-90.57338657 409.60762204 -98.67444569 411.08040635 -107.28161621 412.93634033 C-151.57379635 422.40873423 -151.57379635 422.40873423 -168.125 412.3125 C-175.55250305 406.5576026 -180.02891755 399.13619895 -181.30175781 389.7824707 C-181.43747329 387.53336366 -181.4661149 385.31544645 -181.4375 383.0625 C-181.43266602 381.83370117 -181.43266602 381.83370117 -181.42773438 380.58007812 C-181.29973665 374.82900803 -180.41210995 369.56298777 -179 364 C-175.37853383 349.64545105 -174.90926296 334.63436172 -182.4609375 321.44921875 C-183.89761562 319.22127374 -185.3859699 317.10227421 -187 315 C-187.60070312 314.18273437 -188.20140625 313.36546875 -188.8203125 312.5234375 C-204.22175651 294.69309193 -230.38770634 291.01759603 -252.390625 288.48193359 C-261.96222546 287.33477087 -269.97991317 286.17963426 -277 279 C-283.91430407 268.40109969 -284.381226 255.2391971 -283 243 C-280.74377031 234.57737985 -274.94637052 228.23321237 -269.48022461 221.65966797 C-259.2630704 209.24157579 -255.89349815 197.8915875 -257 182 C-258.22001642 175.40038364 -261.78738629 170.2865578 -267.1953125 166.4375 C-272.85659112 162.88810902 -278.72615046 160.26926473 -285 158 C-285 156.35 -285 154.7 -285 153 C-269.31823145 144.89332304 -251.53764444 140.77982295 -234.1875 145.5625 C-214.53477484 152.6179504 -200.41192765 168.56444174 -187.4375 184.3125 C-181.02892161 191.72881553 -172.29989608 197.98018586 -162.37109375 199.03125 C-155.18838151 198.93658493 -145.65045978 196.66777113 -140 192 C-133.1852319 182.41035627 -133.70590554 168.60730308 -133.66447449 157.3770256 C-133.6559899 155.14243558 -133.63530543 152.90821799 -133.61193848 150.67373657 C-133.56419535 145.90754889 -133.53110496 141.1413213 -133.5 136.375 C-132.84480672 37.11959099 -132.84480672 37.11959099 -102.625 6.6015625 C-94.76299051 -0.79364018 -86.71500355 -5.58202779 -76.625 -9.25 C-75.9539624 -9.49645264 -75.2829248 -9.74290527 -74.59155273 -9.99682617 C-49.08024937 -18.77572478 -21.76384545 -15.86158192 0 0 Z " fill="#593C34" transform="translate(308,71)"/>
<path d="M0 0 C10.60990385 7.64677755 19.13311391 18.28265469 26.1875 29.1875 C29.09351803 33.65607932 32.21405965 37.72370624 35.6875 41.75 C52.0984444 60.8075961 62.78890754 79.49451544 68.3125 104.3125 C68.54066406 105.24964844 68.76882813 106.18679688 69.00390625 107.15234375 C73.77051694 129.85207719 70.2727528 152.55687286 58.3125 172.3125 C45.91948127 190.74314324 26.11456783 201.16988213 4.75 205.6875 C-20.11956135 208.9715136 -45.30162006 205.85711892 -65.78125 190.609375 C-76.52714469 182.11665178 -85.21656458 166.76478289 -86.98486328 152.99731445 C-87.12273121 150.63601737 -87.14646417 148.30246128 -87.125 145.9375 C-87.14498047 145.1640625 -87.16496094 144.390625 -87.18554688 143.59375 C-87.17600413 132.02794827 -81.27424225 122.10141625 -76 112.125 C-75.37342904 110.92791764 -74.74721168 109.73065014 -74.12133789 108.53320312 C-70.72922088 102.06482156 -67.24681461 95.65501921 -63.625 89.3125 C-54.74477319 74.13045369 -54.74477319 74.13045369 -55.29833984 57.00537109 C-56.0749155 54.37214309 -56.87659034 51.74785218 -57.6875 49.125 C-61.5694108 36.46988057 -63.35259605 24.32512603 -57.2890625 11.9609375 C-51.88731249 3.02828748 -44.78586566 -2.91432016 -34.828125 -6.32421875 C-22.53764403 -8.41001205 -10.64349679 -6.58795749 0 0 Z " fill="#E9BAAA" transform="translate(285.6875,180.6875)"/>
<path d="M0 0 C5.14530601 1.74746242 8.06999828 4.43264437 11 9 C11.57230133 15.29531466 10.35525075 19.51464895 7.75 25.1875 C5.47662425 30.38305634 3.44174475 35.47331582 1.875 40.9375 C-1.47455919 52.25816206 -6.15394218 60.79506435 -16.5 66.9375 C-23.83789006 70.30442821 -32.3609002 70.53030045 -40.0078125 68.0078125 C-42.48000178 66.81968571 -44.72047178 65.52114672 -47 64 C-48.546875 63.0409375 -48.546875 63.0409375 -50.125 62.0625 C-52 60 -52 60 -52.4375 56.875 C-52 54 -52 54 -50 52 C-48.948125 51.855625 -47.89625 51.71125 -46.8125 51.5625 C-42.07852426 50.20160348 -40.42380829 46.95676003 -38.015625 42.8671875 C-34.80699346 36.88147547 -31.97059022 30.68635903 -29.17089844 24.5012207 C-22.97057141 11.04550732 -16.23303459 -1.35066852 0 0 Z " fill="#F5E5C5" transform="translate(240,105)"/>
<path d="M0 0 C10.50940814 6.06471774 14.33238398 18.22708135 18.63671875 28.9453125 C18.93843994 29.69441895 19.24016113 30.44352539 19.55102539 31.21533203 C20.12428798 32.65235655 20.6879626 34.09325939 21.23999023 35.53857422 C23.45782453 41.15600358 25.91152521 46.91835048 31.453125 49.8203125 C32.31421875 50.06523437 33.1753125 50.31015625 34.0625 50.5625 C36.703125 51.3203125 36.703125 51.3203125 38.8125 52.4375 C39.609375 55.0546875 39.609375 55.0546875 39.8125 57.4375 C31.82332818 63.95498227 23.86591898 63.21283908 13.8125 62.4375 C2.70460995 60.16106821 -6.69563023 51.38361322 -13.1875 42.4375 C-17.68259599 34.88078351 -21.35928894 27.30688756 -22.1875 18.4375 C-22.30931641 17.28314453 -22.30931641 17.28314453 -22.43359375 16.10546875 C-22.75301628 10.42361954 -21.50538897 6.08691021 -18.1875 1.4375 C-13.11134427 -3.20355667 -5.9955196 -2.66467538 0 0 Z " fill="#F4E5C6" transform="translate(286.1875,101.5625)"/>
</svg>
